<svg id="Layer_1" data-name="Layer 1" xmlns="http://www.w3.org/2000/svg" viewBox="0 0 273.27 45.25"><defs><style>.cls-1{fill:#fff;stroke:#bcbec0;stroke-miterlimit:10;}</style></defs><title>iTheaterLogo</title><path class="cls-1" d="M1.78,14.36c2,.12,3.9.18,6.12.18,1,0,1.92-.12,2.82-.18A28.65,28.65,0,0,1,14,14.3c1.68.06,2,2.82,2,4.44-.18,2.46-.3,6-.3,9.65a96,96,0,0,0,.42,9.72c0,1,1.86,1,3.18,1h.6A12.78,12.78,0,0,0,21.46,39h.24c1.26,0,1.8,1.5,1.8,2.46s-.42,2.7-1.8,2.7c-2.34-.18-5.58-.36-8.76-.36-2.22,0-4.14.12-6.24.18l-3,.18c-1.2,0-1.8-1.56-1.8-2.58S2.44,39,3.7,39C4.12,39,4.54,39,5,39a10.62,10.62,0,0,0,1.38.06c1.44,0,3,.06,3-1a61.72,61.72,0,0,0,.36-9.24c-.06-3-.24-5.93-.3-7.79,0-.18-.06-.42-.06-.66,0-1-1.32-1-3.9-1-1.14,0-2.28.06-3.66.18C0,19.16-.08,17.36,0,16.1A1.85,1.85,0,0,1,1.78,14.36ZM11.68.74a4.62,4.62,0,0,1,0,9.24,4.62,4.62,0,0,1,0-9.24Z"/><path class="cls-1" d="M45.16,3.92c4.8,0,10.32-.12,14.28-.3A1.23,1.23,0,0,1,60.7,4.88c-.12,1.56-.24,5.28-.24,6.84s.12,4.26.24,5.52-1.44,2-2.52,2-2.76-.66-2.76-2a50.15,50.15,0,0,0,.06-6.72c-.12-.84-.42-1.38-1.32-1.38L48.28,9a1.57,1.57,0,0,0-1.08,1.5c-.18,5.58-.36,10.5-.36,16,0,4,.12,7.62.36,11.4a1.28,1.28,0,0,0,1.26,1.32h4.38c1.2,0,1.8,1.5,1.8,2.46,0,1.26-.66,2.7-1.8,2.7-1.5-.06-6.78-.24-8.58-.24-2.22,0-7.38.24-8.88.24-1.32,0-2-1.32-2-2.52s.54-2.64,2-2.64h4c1.68,0,1.5-2.94,1.62-4.2.24-9.42.24-17.09-.06-24-.06-.9-.3-1.74-1.32-2-1.5.06-4.32.12-5.7.18-.9,0-1.2.54-1.32,1.38a50.15,50.15,0,0,0,.06,6.72c0,1.32-1.8,2-2.76,2s-2.52-.78-2.52-2,.24-4,.24-5.52-.12-5.28-.24-6.84A1.23,1.23,0,0,1,28.6,3.62c4.14.18,10.8.3,15.9.3Z"/><path class="cls-1" d="M65.68.14c.36,0,.72.06,1,.06.9.06,1.38.12,3.18.12A12.17,12.17,0,0,0,71.5.2h-.06A9.35,9.35,0,0,1,74,0c2,.06,2.1,2.94,2,4.74-.24,3.9-.48,9-.48,14.52,2.76-3.18,6.66-6,11.4-6.12,5.82-.06,8.7,4.62,8.94,10-.12,2.21-.3,5.52-.3,8.63A37.11,37.11,0,0,0,96,37.57c0,1.14.78,1.14,1.86,1.08h.6a3.19,3.19,0,0,0,.84-.06c.12,0,.3-.06.54-.06,1.32,0,2,1.74,2,2.76s-.6,3.06-2,3.06L98,44.17c-1.5-.12-2.94-.24-5.22-.24a31.48,31.48,0,0,0-3.84.18c-.84.06-1.74.18-3.3.24-1.2,0-2-1.8-2-2.94,0-.9.72-2.88,2-2.88.42,0,.6.06.78.06a2.49,2.49,0,0,0,.78.06c1.44,0,1.74.06,1.8-1,.12-2.7.18-5.52.18-8.28,0-1.92,0-4-.06-5.88-.06-2.63-1.44-4-3.54-3.95-2.82.06-7.26,4.74-10,8.33.12,3.84.3,7.26.6,9.66,0,1.14.78,1.14,1.8,1.08h.6a3.45,3.45,0,0,0,.9-.06c.12,0,.3-.06.54-.06,1.26,0,2,1.74,2,2.76s-.6,3.06-2,3.06l-1.92-.18c-1.44-.12-2.88-.24-5.16-.24a30.81,30.81,0,0,0-3.84.18c-.84.06-1.8.18-3.3.24-1.26,0-2.1-1.8-2.1-2.94,0-.9.72-2.88,2.1-2.88.42,0,.6.06.78.06a2.27,2.27,0,0,0,.72.06c1.44,0,1.8-.06,1.86-1,.24-3.36.36-9.66.36-15.59S69.4,10.1,69.28,7.4c-.06-1.68-2.16-1.56-3.66-1.5-1.92-.42-2.1-2.1-2-3.48C63.76,1.28,64.9.08,65.68.14Z"/><path class="cls-1" d="M133.9,37.93a13.74,13.74,0,0,1-12.54,7.32c-9.72,0-14.76-7.08-14.76-16.08,0-8.81,5.28-16.07,14.76-16.07a14.48,14.48,0,0,1,10.14,3.78,12.91,12.91,0,0,1,3.42,8.76,6,6,0,0,1-1.74,4.61H113a8.48,8.48,0,0,0,8.46,9.36c3.54,0,6.18-2,8.1-4.08,1.32-1.38,2-1.74,2.94-1.74s1.92.18,1.92,1.8a5.74,5.74,0,0,1-.48,2.28Zm-5.82-14.15a4.2,4.2,0,0,0-1.14-2.64c-1-1.32-2.94-2.22-5.64-2.22-3.6,0-6.06,2.57-7.38,5.76h13.26c.48,0,1-.36.9-.78Z"/><path class="cls-1" d="M165,43.57a6.82,6.82,0,0,1-2.58-2.52c-2.94,1.8-7.08,3.78-10.56,3.78-5.58,0-11.22-2.34-11.22-9.12s8.64-8.57,12.18-9.24a41.83,41.83,0,0,0,8.22-2.39c-.6-3.48-2.64-5-6.78-5-2.46,0-5.52,1-6.6,1.86a3.59,3.59,0,0,1,.54,3.84,3,3,0,0,1-2.76,1.86,4.39,4.39,0,0,1-1.86-.48v.06a3.89,3.89,0,0,1-2.1-3.84A7.7,7.7,0,0,1,143,17.9q3.69-4.5,11-4.5c4.2,0,7.38.6,9.6,2.52A11.23,11.23,0,0,1,167,24.37c-.06,1.14-.12,2.77-.12,4a84.17,84.17,0,0,0,.54,9.18c.24,1,.9,1.38,1.38,1.38a2.46,2.46,0,0,0,.66-.06c.18,0,.48-.06.66-.06,1.44,0,2.16,1.08,2.16,2.58a2.81,2.81,0,0,1-2.4,2.88,10.74,10.74,0,0,1-4.8-.66Zm-18-7.68c0,2.34,2.28,2.58,4.8,2.58,2.88,0,7.5-2,9.42-3.36V30c-2,.66-4.8,1.38-7.44,2C150,32.65,147,33.55,147,35.89Z"/><path class="cls-1" d="M190.9,5.6c0,.66,0,1.68-.06,2.64-.06,1.32-.12,3.12-.12,4s.24,1.08.9,1.14c.42.06,2,.06,2.7.06a18.46,18.46,0,0,0,3.18-.24c1.44,0,2.4,1.32,2.4,3.06A2.57,2.57,0,0,1,197.62,19h-.84c-.36,0-.66-.06-1.26-.06h-1.38c-1.14,0-2.34-.06-2.82,0a1.58,1.58,0,0,0-1.08,1.2c-.06.06-.12,3.18-.18,6.11,0,.6,0,1.56-.06,2.22s-.06,1.68-.06,2.34a9.48,9.48,0,0,0,1.32,5.46c1,1.2,2.4,1.68,4.56,1.68a5.11,5.11,0,0,0,4-1.8c.42-.48,0-.84-.48-1.26A3.81,3.81,0,0,1,198,31.87c0-1.86,1.32-3.66,4.14-3.66,3.48,0,4.5,3.66,4.5,5.88,0,6.3-4,10.14-10.5,10.14-7.86,0-12.36-3.72-12.36-11.64,0-1.62,0-3.53.06-5.34s.06-3.35.06-5V20.42c0-.6-.18-1.26-1-1.32A24.64,24.64,0,0,0,180,19c-1.38,0-2.94.06-2.94.06-.9,0-1.44-.72-2-1.5a5,5,0,0,1-.06-1.26c0-1,.3-3,1.86-3a20.53,20.53,0,0,0,2.76.24h.42a15.84,15.84,0,0,0,3-.12c.6-.12,1.14-.36,1.14-.84.06-1.14,0-2.7-.06-3.84s-.06-2.4-.06-3.12c.06-1.62.6-3.42,3.24-3.42A3.29,3.29,0,0,1,190.9,5.6Z"/><path class="cls-1" d="M238.11,37.93a13.72,13.72,0,0,1-12.53,7.32c-9.72,0-14.76-7.08-14.76-16.08,0-8.81,5.28-16.07,14.76-16.07a14.5,14.5,0,0,1,10.14,3.78,12.9,12.9,0,0,1,3.41,8.76,6,6,0,0,1-1.74,4.61H217.18a8.48,8.48,0,0,0,8.46,9.36c3.54,0,6.17-2,8.09-4.08,1.32-1.38,2-1.74,3-1.74s1.91.18,1.91,1.8a5.58,5.58,0,0,1-.48,2.28ZM232.3,23.78a4.26,4.26,0,0,0-1.14-2.64c-1-1.32-2.94-2.22-5.64-2.22-3.6,0-6.06,2.57-7.38,5.76h13.25c.49,0,1-.36.91-.78Z"/><path class="cls-1" d="M268.72,25.22c-2.83,0-4.21-1.68-4.21-3.54a5.69,5.69,0,0,1,.19-1.5c.06-.18.06-.3-.43-.36-2.22.54-5.64,4.08-8.33,7.43a84.84,84.84,0,0,0,.42,10.26c0,1.14.72,1.14,1.8,1.08h.6a3.45,3.45,0,0,0,.9-.06c.12,0,.3-.06.54-.06,1.26,0,2,1.74,2,2.76s-.6,3.06-2,3.06l-1.92-.18c-1.5-.12-2.88-.24-5.16-.24a30.16,30.16,0,0,0-3.84.18c-.84.06-1.8.18-3.3.24-1.26,0-2.1-1.8-2.1-2.94,0-.9.72-2.88,2.1-2.88.36,0,.54.06.72.06a2.49,2.49,0,0,0,.78.06c1.5,0,1.8.06,1.86-1,.12-2.82.24-6.36.24-9.78,0-2.28-.06-4.38-.12-6.23-.06-1.68-2.16-1.56-3.66-1.5-1.92-.42-2.1-2.1-2-3.48.12-1.14,1.26-2.34,2-2.28.36,0,.66.06.9.06,1,.06,1.44.12,3.18.12a12.41,12.41,0,0,0,1.74-.12h-.06a9.35,9.35,0,0,1,2.58-.18c2,.06,2.1,2.7,2,4.5,2.88-3,6-5.34,10.56-5.46a5.66,5.66,0,0,1,2,.3,6.29,6.29,0,0,1,4.5,6.12C273.27,21.86,272.19,25.22,268.72,25.22Z"/></svg>